# Blender v2.76 (sub 0) OBJ File: 'spexplopsh.blend'
# www.blender.org
mtllib spexplopsh.mtl
o Cylinder.007
v -0.256474 2.955680 2.385225
v -0.256474 2.955680 -1.045082
v -0.222113 2.827443 2.385225
v -0.222113 2.827443 -1.045082
v -0.128237 2.733567 2.385225
v -0.128237 2.733567 -1.045082
v -0.000000 2.699206 2.385225
v 0.000000 2.699206 -1.045082
v 0.128237 2.733567 2.385225
v 0.128237 2.733567 -1.045082
v 0.222113 2.827443 2.385225
v 0.222113 2.827443 -1.045082
v 0.256474 2.955680 2.385225
v 0.256474 2.955680 -1.045082
v 0.222113 3.083917 2.385225
v 0.222113 3.083917 -1.045082
v 0.128237 3.177793 2.385225
v 0.128237 3.177793 -1.045082
v -0.000000 3.212154 2.385225
v 0.000000 3.212154 -1.045082
v -0.128237 3.177793 2.385225
v -0.128237 3.177793 -1.045082
v -0.222113 3.083917 2.385225
v -0.222113 3.083917 -1.045082
v -0.256474 2.955680 1.131612
v -0.256474 2.955680 0.208531
v -0.222113 2.827443 0.208531
v -0.222113 2.827443 1.131612
v -0.128237 2.733567 0.208531
v -0.128237 2.733567 1.131612
v 0.000000 2.699206 0.208531
v -0.000000 2.699206 1.131612
v 0.128237 2.733567 0.208531
v 0.128237 2.733567 1.131612
v 0.222113 2.827443 0.208531
v 0.222113 2.827443 1.131612
v 0.256474 2.955680 0.208531
v 0.256474 2.955680 1.131612
v 0.222113 3.083917 0.208531
v 0.222113 3.083917 1.131612
v 0.128237 3.177793 0.208531
v 0.128237 3.177793 1.131612
v 0.000000 3.212154 0.208531
v 0.000000 3.212154 1.131612
v -0.128237 3.177793 0.208531
v -0.128237 3.177793 1.131612
v -0.222113 3.083917 0.208531
v -0.222113 3.083917 1.131612
vn -0.965900 -0.258800 -0.000000
vn -0.707100 -0.707100 0.000000
vn -0.258800 -0.965900 -0.000000
vn 0.258800 -0.965900 0.000000
vn 0.707100 -0.707100 0.000000
vn 0.965900 -0.258800 0.000000
vn 0.965900 0.258800 0.000000
vn 0.707100 0.707100 -0.000000
vn 0.258800 0.965900 -0.000000
vn -0.258800 0.965900 0.000000
vn 0.000000 0.000000 -1.000000
vn -0.965900 0.258800 -0.000000
vn -0.707100 0.707100 -0.000000
vn -0.000000 0.000000 1.000000
usemtl Blk
s off
f 26//1 2//1 4//1 27//1
f 27//2 4//2 6//2 29//2
f 29//3 6//3 8//3 31//3
f 31//4 8//4 10//4 33//4
f 33//5 10//5 12//5 35//5
f 35//6 12//6 14//6 37//6
f 37//7 14//7 16//7 39//7
f 39//8 16//8 18//8 41//8
f 41//9 18//9 20//9 43//9
f 43//10 20//10 22//10 45//10
f 4//11 2//11 24//11 22//11 20//11 18//11 16//11 14//11 12//11 10//11 8//11 6//11
f 47//12 24//12 2//12 26//12
f 45//13 22//13 24//13 47//13
f 1//14 3//14 5//14 7//14 9//14 11//14 13//14 15//14 17//14 19//14 21//14 23//14
f 21//13 46//13 48//13 23//13
f 46//13 45//13 47//13 48//13
f 23//12 48//12 25//12 1//12
f 48//12 47//12 26//12 25//12
f 19//10 44//10 46//10 21//10
f 44//10 43//10 45//10 46//10
f 17//9 42//9 44//9 19//9
f 42//9 41//9 43//9 44//9
f 15//8 40//8 42//8 17//8
f 40//8 39//8 41//8 42//8
f 13//7 38//7 40//7 15//7
f 38//7 37//7 39//7 40//7
f 11//6 36//6 38//6 13//6
f 36//6 35//6 37//6 38//6
f 9//5 34//5 36//5 11//5
f 34//5 33//5 35//5 36//5
f 7//4 32//4 34//4 9//4
f 32//4 31//4 33//4 34//4
f 5//3 30//3 32//3 7//3
f 30//3 29//3 31//3 32//3
f 3//2 28//2 30//2 5//2
f 28//2 27//2 29//2 30//2
f 1//1 25//1 28//1 3//1
f 25//1 26//1 27//1 28//1
o Cylinder.005
v 0.000000 -0.517335 0.457468
v 0.000000 2.976087 0.457468
v 0.106302 -0.517335 0.485952
v 0.106302 2.976087 0.485952
v 0.184120 -0.517335 0.563770
v 0.184120 2.976087 0.563770
v 0.212603 -0.517335 0.670072
v 0.212603 2.976087 0.670072
v 0.184120 -0.517335 0.776373
v 0.184120 2.976087 0.776373
v 0.106302 -0.517335 0.854191
v 0.106302 2.976087 0.854191
v 0.000000 -0.517335 0.882675
v 0.000000 2.976087 0.882675
v -0.106302 -0.517335 0.854191
v -0.106302 2.976087 0.854191
v -0.184120 -0.517335 0.776373
v -0.184120 2.976087 0.776373
v -0.212603 -0.517335 0.670072
v -0.212603 2.976087 0.670072
v -0.184120 -0.517335 0.563770
v -0.184120 2.976087 0.563770
v -0.106302 -0.517335 0.485952
v -0.106302 2.976087 0.485952
vn 0.258800 0.000000 -0.965900
vn 0.707100 0.000000 -0.707100
vn 0.965900 0.000000 -0.258800
vn 0.965900 0.000000 0.258800
vn 0.707100 0.000000 0.707100
vn 0.258800 0.000000 0.965900
vn -0.258800 0.000000 0.965900
vn -0.707100 0.000000 0.707100
vn -0.965900 0.000000 0.258800
vn -0.965900 0.000000 -0.258800
vn 0.000000 1.000000 0.000000
vn -0.258800 0.000000 -0.965900
vn -0.707100 0.000000 -0.707100
vn 0.000000 -1.000000 0.000000
usemtl Blk
s off
f 49//15 50//15 52//15 51//15
f 51//16 52//16 54//16 53//16
f 53//17 54//17 56//17 55//17
f 55//18 56//18 58//18 57//18
f 57//19 58//19 60//19 59//19
f 59//20 60//20 62//20 61//20
f 61//21 62//21 64//21 63//21
f 63//22 64//22 66//22 65//22
f 65//23 66//23 68//23 67//23
f 67//24 68//24 70//24 69//24
f 52//25 50//25 72//25 70//25 68//25 66//25 64//25 62//25 60//25 58//25 56//25 54//25
f 71//26 72//26 50//26 49//26
f 69//27 70//27 72//27 71//27
f 49//28 51//28 53//28 55//28 57//28 59//28 61//28 63//28 65//28 67//28 69//28 71//28
o Cylinder.004
v 0.000000 0.746207 0.373157
v 0.000000 1.103443 0.373157
v 0.148457 0.746207 0.412936
v 0.148457 1.103443 0.412936
v 0.257136 0.746207 0.521614
v 0.257136 1.103443 0.521614
v 0.296915 0.746207 0.670072
v 0.296915 1.103443 0.670072
v 0.257136 0.746207 0.818529
v 0.257136 1.103443 0.818529
v 0.148457 0.746207 0.927207
v 0.148457 1.103443 0.927207
v 0.000000 0.746207 0.966986
v 0.000000 1.103443 0.966986
v -0.148457 0.746207 0.927207
v -0.148457 1.103443 0.927207
v -0.257136 0.746207 0.818529
v -0.257136 1.103443 0.818529
v -0.296915 0.746207 0.670072
v -0.296915 1.103443 0.670072
v -0.257136 0.746207 0.521614
v -0.257136 1.103443 0.521614
v -0.148458 0.746207 0.412936
v -0.148458 1.103443 0.412936
vn 0.258800 0.000000 -0.965900
vn 0.707100 0.000000 -0.707100
vn 0.965900 0.000000 -0.258800
vn 0.965900 0.000000 0.258800
vn 0.707100 0.000000 0.707100
vn 0.258800 0.000000 0.965900
vn -0.258800 0.000000 0.965900
vn -0.707100 0.000000 0.707100
vn -0.965900 0.000000 0.258800
vn -0.965900 0.000000 -0.258800
vn 0.000000 1.000000 -0.000000
vn -0.258800 0.000000 -0.965900
vn -0.707100 0.000000 -0.707100
vn 0.000000 -1.000000 -0.000000
usemtl Blk
s off
f 73//29 74//29 76//29 75//29
f 75//30 76//30 78//30 77//30
f 77//31 78//31 80//31 79//31
f 79//32 80//32 82//32 81//32
f 81//33 82//33 84//33 83//33
f 83//34 84//34 86//34 85//34
f 85//35 86//35 88//35 87//35
f 87//36 88//36 90//36 89//36
f 89//37 90//37 92//37 91//37
f 91//38 92//38 94//38 93//38
f 76//39 74//39 96//39 94//39 92//39 90//39 88//39 86//39 84//39 82//39 80//39 78//39
f 95//40 96//40 74//40 73//40
f 93//41 94//41 96//41 95//41
f 73//42 75//42 77//42 79//42 81//42 83//42 85//42 87//42 89//42 91//42 93//42 95//42
o Cube.002
v 1.325976 -1.733827 -0.655905
v 1.325976 -1.733827 1.996048
v -1.325976 -1.733827 1.996048
v -1.325976 -1.733827 -0.655905
v 1.325977 0.918125 -0.655904
v 1.325975 0.918125 1.996049
v -1.325977 0.918125 1.996047
v -1.325976 0.918125 -0.655905
vn 0.000000 -1.000000 0.000000
vn 0.000000 1.000000 -0.000000
vn 1.000000 -0.000000 0.000000
vn -0.000000 -0.000000 1.000000
vn -1.000000 -0.000000 -0.000000
vn 0.000000 0.000000 -1.000000
usemtl Wood_Box
s off
f 97//43 98//43 99//43 100//43
f 101//44 104//44 103//44 102//44
f 97//45 101//45 102//45 98//45
f 98//46 102//46 103//46 99//46
f 99//47 103//47 104//47 100//47
f 101//48 97//48 100//48 104//48
